<?xml version="1.0" encoding="iso-8859-1"?>
<!-- Generator: Adobe Illustrator 16.0.0, SVG Export Plug-In . SVG Version: 6.00 Build 0)  -->
<!DOCTYPE svg PUBLIC "-//W3C//DTD SVG 1.1//EN" "http://www.w3.org/Graphics/SVG/1.1/DTD/svg11.dtd">
<svg version="1.1" id="Capa_1" xmlns="http://www.w3.org/2000/svg" xmlns:xlink="http://www.w3.org/1999/xlink" x="0px" y="0px"
	 width="943.703px" height="943.703px" viewBox="0 0 943.703 943.703" style="enable-background:new 0 0 943.703 943.703;"
	 xml:space="preserve">
<g>
	<path d="M572.273,816.336c9.651,4.643,21.242,0.864,26.299-8.578c23.306-43.517,81.484-168.875,81.484-335.879
		c0-167.075-58.229-292.469-81.514-335.935c-5.045-9.418-16.594-13.206-26.238-8.608L244.3,283.735H20c-11.046,0-20,8.954-20,20
		v334.848c0,11.046,8.954,20,20,20h224.3L572.273,816.336z"/>
	<path d="M834.607,142.071l-24.717-24.716c-7.81-7.811-20.474-7.811-28.283,0l-86.904,86.903c-7.81,7.811-7.81,20.474,0,28.284
		l24.716,24.716c7.812,7.811,20.475,7.811,28.284,0l86.903-86.904C842.417,162.544,842.417,149.881,834.607,142.071z"/>
	<path d="M809.891,826.349l24.716-24.716c7.81-7.811,7.81-20.474,0-28.284l-86.903-86.903c-7.81-7.811-20.474-7.811-28.284,0
		l-24.716,24.716c-7.81,7.81-7.81,20.474,0,28.284l86.903,86.902C789.417,834.159,802.08,834.159,809.891,826.349z"/>
	<path d="M923.703,434.375h-122.9c-11.046,0-20,8.954-20,20v34.954c0,11.046,8.954,20,20,20h122.9c11.046,0,20-8.954,20-20v-34.954
		C943.703,443.329,934.749,434.375,923.703,434.375z"/>
</g>
<g>
</g>
<g>
</g>
<g>
</g>
<g>
</g>
<g>
</g>
<g>
</g>
<g>
</g>
<g>
</g>
<g>
</g>
<g>
</g>
<g>
</g>
<g>
</g>
<g>
</g>
<g>
</g>
<g>
</g>
</svg>
